<?xml version="1.0" standalone="no"?>
<!DOCTYPE svg PUBLIC "-//W3C//DTD SVG 20010904//EN"
 "http://www.w3.org/TR/2001/REC-SVG-20010904/DTD/svg10.dtd">
<svg version="1.0" xmlns="http://www.w3.org/2000/svg"
 width="960.000000pt" height="1088.000000pt" viewBox="40 83 840 982"
 preserveAspectRatio="xMidYMid meet">
<metadata>
Created by potrace 1.16, written by Peter Selinger 2001-2019
</metadata>
<g transform="translate(0.000000,1088.000000) scale(0.100000,-0.100000)"
fill="#000000" stroke="none">
<path d="M3760 9684 c-172 -20 -321 -66 -455 -139 -363 -198 -590 -515 -661
-925 -12 -72 -15 -131 -11 -245 12 -332 126 -599 353 -826 l76 -76 -148 -234
c-220 -350 -587 -935 -599 -957 -1 -1 -19 5 -41 14 -68 29 -216 64 -319 76
-164 18 -386 -6 -540 -57 -358 -120 -666 -432 -789 -798 -49 -145 -60 -220
-60 -402 0 -144 3 -184 23 -265 55 -225 134 -383 275 -545 61 -71 75 -85 138
-141 95 -86 276 -187 413 -233 146 -48 234 -62 395 -62 163 0 236 12 404 67
59 20 112 32 116 27 5 -4 28 -41 52 -80 72 -121 225 -369 336 -543 108 -170
276 -442 319 -518 l25 -42 -81 -86 c-140 -148 -253 -345 -304 -529 -62 -223
-63 -510 -3 -700 33 -104 40 -122 74 -195 164 -356 532 -629 937 -696 130 -21
333 -15 462 15 383 87 704 348 868 706 83 180 115 327 115 531 l0 122 143 52
c131 48 563 210 667 250 25 9 180 67 345 129 165 62 309 116 320 121 11 5 63
25 115 44 52 19 153 57 224 85 115 44 156 53 156 32 0 -17 115 -144 162 -179
414 -307 983 -176 1216 279 65 128 85 213 85 364 0 89 -6 140 -21 197 -50 187
-159 349 -308 459 -30 22 -54 47 -54 57 0 9 14 67 31 127 52 192 107 416 133
547 52 255 60 337 60 618 1 249 -6 349 -34 490 -5 25 -16 86 -25 135 -16 86
-81 347 -145 580 -16 61 -30 115 -30 122 0 6 29 32 63 57 157 111 267 284 318
496 21 89 17 261 -9 353 -85 298 -288 508 -569 589 -104 30 -312 32 -418 4
-164 -43 -330 -149 -429 -276 -55 -70 -56 -70 -169 -26 -34 13 -91 36 -127 49
-36 14 -141 54 -235 91 -93 36 -305 115 -470 177 -165 61 -349 130 -410 154
-120 47 -205 78 -420 157 -77 28 -145 55 -151 60 -7 5 -14 64 -17 156 -8 209
-45 342 -150 537 -116 215 -308 406 -513 512 -175 90 -339 133 -534 138 -74 2
-151 1 -170 -1z m290 -395 c211 -39 422 -170 531 -330 115 -169 159 -304 166
-509 4 -133 2 -154 -21 -244 -88 -339 -358 -587 -704 -647 -100 -18 -278 -6
-384 25 -300 88 -516 311 -600 618 -32 116 -32 335 0 453 88 325 359 574 689
634 32 6 72 13 88 15 41 5 168 -3 235 -15z m1083 -1349 c94 -38 566 -220 572
-220 5 0 276 -103 595 -225 91 -35 185 -70 210 -79 25 -8 133 -49 240 -89
l195 -75 7 -128 c7 -145 12 -168 57 -276 119 -284 414 -488 708 -488 77 0 84
-2 92 -22 34 -83 139 -480 162 -605 5 -29 14 -79 19 -110 88 -501 59 -844
-126 -1494 l-56 -196 -96 -6 c-355 -23 -635 -252 -737 -603 -20 -67 -25 -109
-25 -190 0 -75 -4 -106 -12 -109 -42 -13 -436 -157 -453 -165 -36 -16 -247
-97 -380 -145 -71 -26 -281 -103 -465 -172 -358 -134 -538 -200 -582 -213 -27
-8 -29 -6 -67 71 -61 122 -145 234 -253 341 -84 81 -98 99 -89 115 5 10 35 86
67 168 31 83 60 154 64 158 4 4 56 -6 116 -22 220 -60 321 -75 534 -75 211 0
290 9 475 55 734 181 1327 785 1504 1532 33 139 39 177 52 337 22 289 -29 606
-147 902 -106 269 -275 522 -480 718 -263 251 -579 428 -916 514 -174 44 -343
61 -556 53 -188 -7 -307 -24 -464 -67 -59 -17 -110 -30 -113 -30 -7 0 -47 93
-96 222 l-41 109 86 80 c128 120 254 298 297 422 7 20 17 37 21 37 5 0 41 -13
81 -30z m2719 -361 c207 -43 347 -245 323 -463 -14 -133 -110 -268 -234 -329
-63 -31 -70 -32 -186 -32 -114 0 -123 2 -186 31 -88 42 -139 90 -182 172 -49
92 -63 168 -49 259 37 252 266 414 514 362z m-4388 -340 c48 -17 125 -38 170
-48 l81 -18 1 -921 0 -922 -333 0 c-258 0 -334 3 -337 13 -2 6 -11 46 -21 87
-49 211 -161 412 -323 582 -48 50 -71 82 -66 90 4 7 22 36 39 63 18 28 94 149
170 270 193 307 320 509 369 584 22 36 46 73 51 82 53 92 101 169 105 169 3 0
45 -14 94 -31z m885 -66 c21 -61 289 -738 312 -788 11 -26 77 -193 149 -381
77 -200 81 -208 135 -234 49 -24 82 -22 145 11 142 72 240 94 383 86 302 -17
541 -199 634 -482 35 -107 43 -275 19 -396 -24 -121 -88 -248 -170 -336 -142
-153 -309 -224 -527 -224 -122 0 -181 14 -312 73 -101 46 -150 47 -194 6 -33
-30 -46 -57 -92 -186 -39 -107 -114 -300 -132 -337 -12 -26 -264 -649 -337
-833 -44 -111 -60 -141 -72 -136 -8 3 -54 15 -102 27 l-88 22 -1 215 c-1 203
0 3886 1 3903 0 4 10 7 23 7 13 0 54 11 93 24 105 37 105 37 133 -41z m1281
-364 c192 -23 345 -67 510 -145 454 -215 781 -635 907 -1164 34 -144 43 -432
19 -596 -32 -216 -86 -382 -188 -574 -75 -141 -158 -251 -287 -380 -231 -230
-527 -391 -853 -461 -119 -25 -342 -35 -473 -21 -92 11 -311 64 -327 80 -4 4
16 63 44 132 28 69 74 188 104 265 33 86 58 139 66 138 7 -1 49 -9 93 -18 96
-21 292 -24 385 -6 345 64 675 334 807 657 60 147 75 224 81 394 6 224 -23
364 -116 544 -147 286 -391 484 -694 563 -92 24 -121 27 -268 27 -125 0 -181
-4 -229 -17 -36 -10 -68 -14 -71 -10 -4 5 -23 49 -43 98 -19 50 -65 164 -101
254 -36 90 -66 166 -66 170 0 12 179 57 285 71 90 11 319 11 415 -1z m-3599
-840 c314 -79 548 -323 628 -654 18 -74 24 -237 11 -320 -65 -426 -436 -746
-863 -745 -223 1 -420 81 -590 240 -179 167 -267 377 -267 633 1 300 125 544
366 720 193 139 467 188 715 126z m1684 -1961 l1 -937 -26 -5 c-14 -3 -43 -7
-65 -11 -22 -3 -86 -20 -143 -37 -56 -17 -104 -29 -105 -27 -6 7 -173 272
-295 469 -63 102 -188 303 -278 447 -90 143 -164 265 -164 270 0 5 25 33 56
63 77 75 154 180 213 291 66 125 103 233 137 397 l4 22 333 -2 332 -3 0 -937z
m4139 -473 c313 -66 435 -482 207 -704 -66 -64 -125 -97 -210 -118 -173 -41
-374 45 -465 202 -49 82 -67 208 -46 303 42 182 220 326 410 331 19 0 66 -6
104 -14z m-3798 -856 c379 -67 662 -395 688 -799 25 -377 -162 -691 -507 -850
-235 -108 -523 -104 -747 10 -135 68 -286 206 -353 320 -120 206 -155 451 -97
675 55 217 190 408 367 521 95 60 221 112 313 127 53 9 279 6 336 -4z"/>
<path d="M3755 9046 c-218 -48 -376 -182 -460 -391 -23 -59 -28 -89 -33 -193
-6 -144 5 -205 54 -307 107 -222 322 -355 573 -355 109 0 196 24 295 80 298
170 407 530 256 838 -30 61 -60 102 -113 155 -79 80 -132 114 -241 153 -87 31
-238 41 -331 20z"/>
<path d="M1654 5730 c-175 -46 -312 -156 -399 -321 -46 -88 -67 -183 -66 -294
2 -152 43 -266 140 -387 66 -82 135 -133 236 -174 190 -78 395 -67 560 31 83
48 194 168 239 258 133 263 60 593 -170 776 -147 117 -355 160 -540 111z"/>
<path d="M3750 2440 c-30 -6 -97 -31 -149 -56 -168 -83 -288 -232 -332 -414
-17 -69 -17 -250 0 -310 50 -177 167 -320 329 -400 284 -141 618 -58 793 197
142 205 155 454 37 676 -65 121 -199 234 -337 285 -75 28 -244 38 -341 22z"/>
</g>
</svg>
